<?xml version="1.0" encoding="UTF-8" standalone="no"?>
<!-- Generator: Adobe Illustrator 19.0.0, SVG Export Plug-In . SVG Version: 6.00 Build 0)  -->

<svg
   xmlns:dc="http://purl.org/dc/elements/1.1/"
   xmlns:cc="http://creativecommons.org/ns#"
   xmlns:rdf="http://www.w3.org/1999/02/22-rdf-syntax-ns#"
   xmlns:svg="http://www.w3.org/2000/svg"
   xmlns="http://www.w3.org/2000/svg"
   xmlns:sodipodi="http://sodipodi.sourceforge.net/DTD/sodipodi-0.dtd"
   xmlns:inkscape="http://www.inkscape.org/namespaces/inkscape"
   version="1.1"
   id="Layer_1"
   x="0px"
   y="0px"
   viewBox="0 0 496 496"
   xml:space="preserve"
   width="512"
   height="512"
   sodipodi:docname="menu.svg"
   inkscape:version="0.92.2pre0 650254f, 2017-08-06"><metadata
     id="metadata59"><rdf:RDF><cc:Work
         rdf:about=""><dc:format>image/svg+xml</dc:format><dc:type
           rdf:resource="http://purl.org/dc/dcmitype/StillImage" /><dc:title></dc:title></cc:Work></rdf:RDF></metadata><defs
     id="defs57" /><sodipodi:namedview
     pagecolor="#ffffff"
     bordercolor="#666666"
     borderopacity="1"
     objecttolerance="10"
     gridtolerance="10"
     guidetolerance="10"
     inkscape:pageopacity="0"
     inkscape:pageshadow="2"
     inkscape:window-width="2560"
     inkscape:window-height="1377"
     id="namedview55"
     showgrid="false"
     inkscape:zoom="0.4609375"
     inkscape:cx="256"
     inkscape:cy="256"
     inkscape:window-x="0"
     inkscape:window-y="30"
     inkscape:window-maximized="1"
     inkscape:current-layer="g18" /><g
     id="g22"><g
       id="g20"><g
         id="g18"><path
           d="M 472,272 V 168 c 0,-13.232 -10.768,-24 -24,-24 h -16 c -6.168,0 -11.744,2.408 -16,6.24 -4.256,-3.84 -9.832,-6.24 -16,-6.24 h -16 c -6.168,0 -11.744,2.408 -16,6.24 -4.256,-3.84 -9.832,-6.24 -16,-6.24 h -16 c -13.232,0 -24,10.768 -24,24 v 102.656 c -18.456,-12.792 -45.392,-23.68 -84.832,-28.288 l 12.6,-88.208 C 239.92,153.096 240,152.016 240,150.936 240,138.288 229.712,128 217.064,128 H 144 V 56 c 0,-4.408 3.592,-8 8,-8 h 64 C 229.232,48 240,37.232 240,24 240,10.768 229.232,0 216,0 H 144 C 117.528,0 96,21.528 96,48 v 80 H 22.936 C 10.288,128 0,138.288 0,150.936 c 0,1.08 0.08,2.16 0.232,3.248 l 19.28,134.944 C 0.496,311.776 0,334.112 0,336 0,349.952 9.024,361.712 21.496,366.088 18.032,371.2 16,377.368 16,384 c 0,8.528 3.4,16.232 8.856,21.976 C 10.056,414.16 0,429.92 0,448 c 0,26.472 21.528,48 48,48 h 240 16 192 v -168 -8 -24 c 0,-13.232 -10.768,-24 -24,-24 z M 424,168 c 0,-4.408 3.592,-8 8,-8 h 16 c 4.408,0 8,3.592 8,8 v 104 h -32 z m -48,0 c 0,-4.408 3.592,-8 8,-8 h 16 c 4.408,0 8,3.592 8,8 v 104 h -32 z m -48,0 c 0,-4.408 3.592,-8 8,-8 h 16 c 4.408,0 8,3.592 8,8 V 272 H 328 Z M 200,16 h 16 c 4.408,0 8,3.592 8,8 0,4.408 -3.592,8 -8,8 h -16 z m -32,0 h 16 v 16 h -16 z m -56,32 c 0,-17.648 14.352,-32 32,-32 h 8 v 16 c -13.232,0 -24,10.768 -24,24 v 72 H 112 Z M 17.224,160 16.072,151.944 C 16.024,151.608 16,151.272 16,150.936 16,147.112 19.112,144 22.936,144 H 96 h 48 73.064 c 3.824,0 6.936,3.112 6.936,6.936 0,0.336 -0.024,0.672 -0.064,0.984 l -1.16,8.08 H 200 v 16 h 20.488 l -4.568,32 H 24.08 L 19.512,176 H 184 v -16 z m 196.416,64 -2.416,16.928 C 202.656,240.336 193.632,240 184,240 H 168 C 98.288,240 57.568,256.232 33.704,275.352 L 26.368,224 Z M 16,336 c 0,-0.8 1.736,-80 152,-80 h 16 c 149.224,0 151.96,76.784 152,80 0,8.824 -7.176,16 -16,16 H 312 304 48 32 c -8.824,0 -16,-7.176 -16,-16 z m 32,64 c -8.824,0 -16,-7.176 -16,-16 0,-8.824 7.176,-16 16,-16 h 256 c 8.824,0 16,7.176 16,16 0,8.824 -7.176,16 -16,16 z M 270.608,416 237.784,454.296 150.24,416 Z M 304,480 H 288 48 c -17.648,0 -32,-14.352 -32,-32 0,-17.648 14.352,-32 32,-32 h 62.328 L 242.216,473.704 291.68,416 H 304 c 17.648,0 32,14.352 32,32 0,17.648 -14.352,32 -32,32 z m 23.152,-74.024 C 332.6,400.232 336,392.528 336,384 c 0,-5.856 -1.696,-11.272 -4.448,-16 H 448 v 80 h -96 c 0,-5.616 -1.024,-10.984 -2.8,-16 H 400 v -16 h -60.32 c -3.584,-3.992 -7.8,-7.408 -12.528,-10.024 z M 480,320 h -16 v 16 h 16 V 480 H 339.68 c 4.152,-4.624 7.408,-10.032 9.52,-16 H 464 V 352 H 347.552 C 350.304,347.272 352,341.856 352,336 h 96 v -16 h -98.712 c -2.6,-8.896 -7.736,-20.44 -17.752,-32 H 472 c 4.408,0 8,3.584 8,8 z"
           id="path2"
           style="fill:#f9f9f9;fill-opacity:1"
           inkscape:connector-curvature="0" /><rect
           x="416"
           y="416"
           width="16"
           height="16"
           id="rect4"
           style="fill:#f9f9f9;fill-opacity:1" /><rect
           x="104"
           y="272"
           width="16"
           height="16"
           id="rect6"
           style="fill:#f9f9f9;fill-opacity:1" /><rect
           x="136"
           y="288"
           width="16"
           height="16"
           id="rect8"
           style="fill:#f9f9f9;fill-opacity:1" /><rect
           x="168"
           y="272"
           width="16"
           height="16"
           id="rect10"
           style="fill:#f9f9f9;fill-opacity:1" /><rect
           x="216"
           y="296"
           width="16"
           height="16"
           id="rect12"
           style="fill:#f9f9f9;fill-opacity:1" /><rect
           x="256"
           y="272"
           width="16"
           height="16"
           id="rect14"
           style="fill:#f9f9f9;fill-opacity:1" /><rect
           x="56"
           y="304"
           width="16"
           height="16"
           id="rect16"
           style="fill:#f9f9f9;fill-opacity:1" /></g></g></g><g
     id="g24" /><g
     id="g26" /><g
     id="g28" /><g
     id="g30" /><g
     id="g32" /><g
     id="g34" /><g
     id="g36" /><g
     id="g38" /><g
     id="g40" /><g
     id="g42" /><g
     id="g44" /><g
     id="g46" /><g
     id="g48" /><g
     id="g50" /><g
     id="g52" /></svg>